<svg width="16" height="16" viewBox="0 0 16 16" fill="none" xmlns="http://www.w3.org/2000/svg">
<path d="M7.55416 1.86132C7.75223 1.51302 8.24738 1.51302 8.44545 1.86132L15.1301 13.6164C15.3282 13.9647 15.0806 14.4001 14.6845 14.4001H1.31516C0.919029 14.4001 0.67145 13.9647 0.869514 13.6164L7.55416 1.86132Z" fill="#DA2A2A"/>
<path d="M8.44092 9.98063C8.44092 10.2351 8.23462 10.4414 7.98012 10.4414C7.72563 10.4414 7.51932 10.2351 7.51932 9.98063V6.06383C7.51932 5.80934 7.72563 5.60303 7.98012 5.60303C8.23462 5.60303 8.44092 5.80933 8.44092 6.06383V9.98063ZM7.36572 11.8238C7.36572 11.651 7.42652 11.5038 7.54812 11.3822C7.67612 11.2542 7.82652 11.1902 7.99932 11.1902C8.17212 11.1902 8.31932 11.2542 8.44092 11.3822C8.56892 11.5038 8.63292 11.651 8.63292 11.8238C8.63292 11.9966 8.56892 12.147 8.44092 12.275C8.31932 12.3966 8.17212 12.4574 7.99932 12.4574C7.82652 12.4574 7.67612 12.3966 7.54812 12.275C7.42652 12.147 7.36572 11.9966 7.36572 11.8238Z" fill="white"/>
</svg>
