<svg width="32" height="32" viewBox="0 0 32 32" fill="none" xmlns="http://www.w3.org/2000/svg">
<path fill-rule="evenodd" clip-rule="evenodd" d="M16 27.1999C22.1855 27.1999 27.1999 22.1855 27.1999 16C27.1999 9.81436 22.1855 4.79995 16 4.79995C9.81436 4.79995 4.79995 9.81436 4.79995 16C4.79995 22.1855 9.81436 27.1999 16 27.1999ZM16 28.7999C23.0692 28.7999 28.7999 23.0692 28.7999 16C28.7999 8.93071 23.0692 3.19995 16 3.19995C8.93071 3.19995 3.19995 8.93071 3.19995 16C3.19995 23.0692 8.93071 28.7999 16 28.7999Z" fill="#DA2A2A"/>
<path d="M16.8816 17.5614C16.8816 18.0703 16.469 18.483 15.96 18.483C15.451 18.483 15.0384 18.0703 15.0384 17.5614V9.72775C15.0384 9.21877 15.451 8.80615 15.96 8.80615C16.469 8.80615 16.8816 9.21877 16.8816 9.72775V17.5614ZM14.7312 21.2478C14.7312 20.9022 14.8528 20.6078 15.096 20.3646C15.352 20.1086 15.6528 19.9806 15.9984 19.9806C16.344 19.9806 16.6384 20.1086 16.8816 20.3646C17.1376 20.6078 17.2656 20.9022 17.2656 21.2478C17.2656 21.5934 17.1376 21.8942 16.8816 22.1502C16.6384 22.3934 16.344 22.515 15.9984 22.515C15.6528 22.515 15.352 22.3934 15.096 22.1502C14.8528 21.8942 14.7312 21.5934 14.7312 21.2478Z" fill="#DA2A2A"/>
<circle cx="16" cy="16" r="12.05" stroke="#DA2A2A" stroke-width="1.5"/>
<path d="M16.8816 17.5614C16.8816 18.0703 16.469 18.483 15.96 18.483C15.451 18.483 15.0384 18.0703 15.0384 17.5614V9.72775C15.0384 9.21877 15.451 8.80615 15.96 8.80615C16.469 8.80615 16.8816 9.21877 16.8816 9.72775V17.5614ZM14.7312 21.2478C14.7312 20.9022 14.8528 20.6078 15.096 20.3646C15.352 20.1086 15.6528 19.9806 15.9984 19.9806C16.344 19.9806 16.6384 20.1086 16.8816 20.3646C17.1376 20.6078 17.2656 20.9022 17.2656 21.2478C17.2656 21.5934 17.1376 21.8942 16.8816 22.1502C16.6384 22.3934 16.344 22.515 15.9984 22.515C15.6528 22.515 15.352 22.3934 15.096 22.1502C14.8528 21.8942 14.7312 21.5934 14.7312 21.2478Z" fill="#DA2A2A"/>
</svg>
