<svg width="33" height="32" viewBox="0 0 33 32" fill="none" xmlns="http://www.w3.org/2000/svg">
<path fill-rule="evenodd" clip-rule="evenodd" d="M23.1941 16.9214L23.2688 9.30375L22.1817 9.29919L22.1837 9.30054L20.1485 9.29098L20.0735 16.9083L23.1941 16.9214ZM18.9976 8.68602L18.0275 8.05105L23.3274 8.07328C23.5855 8.07449 23.848 8.14286 24.0637 8.28579C24.2743 8.42537 24.5058 8.68908 24.5019 9.06707C24.5019 9.06699 24.5019 9.06716 24.5019 9.06707C24.5019 9.06723 24.5019 9.06765 24.5019 9.0678L24.4224 17.1763C24.4183 17.5525 24.1836 17.8112 23.9725 17.9475C23.7558 18.0873 23.4935 18.1535 23.2351 18.1523L20.0151 18.1388C19.7567 18.1378 19.4942 18.0694 19.2785 17.9263C19.0677 17.7866 18.8363 17.5226 18.8404 17.1445M18.9976 8.68602C18.9509 8.78849 18.9215 8.90547 18.9203 9.03677L18.9976 8.68602Z" fill="#DA2A2A"/>
<path d="M11.8531 7.99902L11.8654 7.99902L18.2774 8.0421C19.2743 8.04825 20.0742 8.84206 20.0742 9.81432L20.025 17.3463C20.025 17.3463 20.025 17.4324 20.025 17.4447C20.0004 17.8508 19.8342 18.2385 19.5635 18.5462C19.545 18.5708 19.5204 18.5954 19.4958 18.62C19.3912 18.7246 19.2804 18.817 19.1573 18.8969C17.4651 20.0046 16.9605 22.1399 16.899 22.4475C16.8744 22.8906 16.6652 23.309 16.3083 23.6044C15.9267 23.9244 15.4221 24.0598 14.9299 23.9736C14.413 23.8875 13.9945 23.6106 13.7176 23.1798C13.2069 22.386 13.1638 21.0691 13.5822 19.1615L10.3947 19.1369C9.89011 19.1369 9.41628 18.94 9.05938 18.5954C8.69632 18.2447 8.49941 17.7708 8.49941 17.2724C8.49941 16.774 8.70863 16.3063 9.07169 15.9556C9.11476 15.9125 9.16399 15.8694 9.21322 15.8325C9.0163 15.5433 8.90554 15.1925 8.90554 14.8171C8.90554 14.2756 9.10861 13.8141 9.47167 13.4695C9.50243 13.4388 9.5332 13.4141 9.56397 13.3895C9.35475 13.088 9.24399 12.7311 9.24399 12.3619L9.24399 12.2757C9.24399 11.5927 9.63781 11.002 10.2162 10.6943C10.1055 10.4604 10.0439 10.202 10.0501 9.93739L10.0501 9.75278C10.0501 9.27896 10.247 8.8359 10.5978 8.50361C10.9362 8.18363 11.3854 8.00518 11.8531 8.00518L11.8531 7.99902ZM18.6343 17.7462C18.702 17.6724 18.7881 17.5493 18.8004 17.3709L18.8497 9.80817C18.8497 9.51895 18.5974 9.27896 18.2774 9.27281L11.8654 9.22973C11.7116 9.22973 11.5639 9.28511 11.4531 9.38972C11.3485 9.48818 11.2931 9.6174 11.2931 9.75278L11.2931 9.94354C11.2931 10.0789 11.3423 10.2081 11.4408 10.3066C11.5516 10.4174 11.6992 10.4789 11.8592 10.4789C12.1977 10.4789 12.4746 10.7558 12.4684 11.1004C12.4684 11.4389 12.1915 11.7096 11.8531 11.7096C11.8531 11.7096 11.8531 11.7096 11.8469 11.7096L11.1147 11.7096C10.7701 11.7096 10.4932 11.9681 10.487 12.288L10.487 12.3742C10.487 12.528 10.5485 12.6696 10.6593 12.7803C10.7762 12.8972 10.9362 12.9588 11.1085 12.9588C11.447 12.9588 11.7239 13.2357 11.7177 13.5803C11.7177 13.9187 11.4408 14.1895 11.1024 14.1895L10.7947 14.1895C10.6162 14.1895 10.4562 14.251 10.3332 14.3679C10.2162 14.4787 10.1486 14.6264 10.1486 14.7802C10.1486 15.1617 10.4378 15.4325 10.7885 15.4325C11.127 15.4325 11.4039 15.7094 11.3977 16.054C11.3977 16.3925 11.1208 16.6632 10.7824 16.6632L10.4132 16.6632C10.2286 16.6632 10.0624 16.7309 9.93318 16.8478C9.81011 16.9647 9.74242 17.1186 9.74242 17.2786C9.74242 17.6232 10.0378 17.9062 10.4132 17.9062L14.376 17.9308C14.5668 17.9308 14.7453 18.0231 14.8622 18.1708C14.9791 18.3247 15.016 18.5154 14.9668 18.7C14.2714 21.3399 14.5914 22.2383 14.7576 22.5029C14.8499 22.6445 14.9668 22.7244 15.1452 22.7491C15.336 22.7798 15.4652 22.6998 15.5268 22.6506C15.6191 22.5706 15.6744 22.466 15.6744 22.3614C15.6744 22.3245 15.6744 22.2937 15.6806 22.2629C15.6991 22.146 16.2098 19.3462 18.4928 17.8508C18.5481 17.8139 18.5912 17.7832 18.6281 17.7401L18.6343 17.7462Z" fill="#DA2A2A"/>
</svg>
