<svg width="32" height="32" viewBox="0 0 32 32" fill="none" xmlns="http://www.w3.org/2000/svg">
<path fill-rule="evenodd" clip-rule="evenodd" d="M21.9428 10.057C22.1952 10.3095 22.1952 10.7188 21.9428 10.9713L10.9714 21.9426C10.7189 22.1951 10.3096 22.1951 10.0571 21.9426C9.80467 21.6902 9.80467 21.2808 10.0571 21.0284L21.0285 10.057C21.281 9.80455 21.6903 9.80455 21.9428 10.057Z" fill="#777777"/>
<path fill-rule="evenodd" clip-rule="evenodd" d="M10.0585 10.0572C10.311 9.80477 10.7203 9.80477 10.9728 10.0572L21.9441 21.0286C22.1966 21.2811 22.1966 21.6904 21.9441 21.9429C21.6916 22.1953 21.2823 22.1953 21.0298 21.9429L10.0585 10.9715C9.80601 10.719 9.80601 10.3097 10.0585 10.0572Z" fill="#777777"/>
</svg>
