<svg width="14" height="14" viewBox="0 0 14 14" fill="none" xmlns="http://www.w3.org/2000/svg">
<path fill-rule="evenodd" clip-rule="evenodd" d="M12.9452 1.05653C13.1977 1.309 13.1977 1.71834 12.9452 1.97081L1.97386 12.9422C1.72139 13.1946 1.31205 13.1946 1.05958 12.9422C0.807109 12.6897 0.80711 12.2803 1.05958 12.0279L12.0309 1.05653C12.2834 0.804061 12.6927 0.804061 12.9452 1.05653Z" fill="#777777"/>
<path fill-rule="evenodd" clip-rule="evenodd" d="M1.05849 1.05675C1.31096 0.804278 1.72029 0.804278 1.97276 1.05675L12.9441 12.0281C13.1966 12.2806 13.1966 12.6899 12.9441 12.9424C12.6916 13.1948 12.2823 13.1948 12.0298 12.9424L1.05849 1.97103C0.806015 1.71856 0.806015 1.30922 1.05849 1.05675Z" fill="#777777"/>
</svg>
