<svg width="12" height="12" viewBox="0 0 12 12" fill="none" xmlns="http://www.w3.org/2000/svg">
<path fill-rule="evenodd" clip-rule="evenodd" d="M5.99805 0C6.27419 0 6.49805 0.225917 6.49805 0.504599V8.57819C6.49805 8.85687 6.27419 9.08279 5.99805 9.08279C5.7219 9.08279 5.49805 8.85687 5.49805 8.57819V0.504599C5.49805 0.225917 5.7219 0 5.99805 0Z" fill="white"/>
<path fill-rule="evenodd" clip-rule="evenodd" d="M0.5 8.07324C0.776142 8.07324 1 8.29916 1 8.57784L1 10.2489C1 10.6591 1.32824 10.9905 1.73521 10.9905L10.2648 10.9905C10.6718 10.9905 11 10.6591 11 10.2489V8.57784C11 8.29916 11.2239 8.07324 11.5 8.07324C11.7761 8.07324 12 8.29916 12 8.57784V10.2489C12 11.2168 11.2237 11.9997 10.2648 11.9997L1.73521 11.9997C0.776288 11.9997 0 11.2168 0 10.2489L0 8.57784C0 8.29916 0.223858 8.07324 0.5 8.07324Z" fill="white"/>
<path fill-rule="evenodd" clip-rule="evenodd" d="M2.88003 5.71595C3.06579 5.50975 3.38201 5.49455 3.58634 5.68201L6 7.89644L8.41367 5.68201C8.618 5.49455 8.93422 5.50975 9.11997 5.71595C9.30573 5.92216 9.29067 6.2413 9.08634 6.42876L6.33634 8.95176C6.14563 9.12672 5.85438 9.12672 5.66367 8.95176L2.91367 6.42876C2.70934 6.2413 2.69428 5.92216 2.88003 5.71595Z" fill="white"/>
</svg>
