<svg width="16" height="12" viewBox="0 0 16 12" fill="none" xmlns="http://www.w3.org/2000/svg">
<g clip-path="url(#clip0_2191_13890)">
<path d="M8.00014 11.5999C4.909 11.5999 2.04649 9.95868 0.341638 7.2094C-0.11388 6.47446 -0.11388 5.52535 0.341638 4.7904C2.04591 2.04113 4.909 0.399902 8.00014 0.399902C11.0913 0.399902 13.9538 2.04113 15.6586 4.7904C16.1142 5.52535 16.1142 6.47446 15.6586 7.2094C13.9544 9.95868 11.0913 11.5999 8.00014 11.5999ZM8.00014 1.48372C5.30417 1.48372 2.79853 2.92881 1.29794 5.3495C1.0606 5.73219 1.0606 6.26705 1.29794 6.65031C2.79853 9.071 5.30417 10.5161 8.00014 10.5161C10.6961 10.5161 13.2018 9.071 14.7024 6.65031C14.9397 6.26762 14.9397 5.73275 14.7024 5.3495C13.2018 2.92881 10.6961 1.48372 8.00014 1.48372Z" fill="#CCCCCC"/>
<path d="M7.99873 9.43261C6.05016 9.43261 4.46484 7.89283 4.46484 6.00024C4.46484 4.10765 6.05016 2.56787 7.99873 2.56787C9.94731 2.56787 11.5326 4.10765 11.5326 6.00024C11.5326 7.89283 9.94731 9.43261 7.99873 9.43261ZM7.99873 3.65225C6.66526 3.65225 5.58072 4.70563 5.58072 6.0008C5.58072 7.29597 6.66526 8.34935 7.99873 8.34935C9.33221 8.34935 10.4168 7.29597 10.4168 6.0008C10.4168 4.70563 9.33221 3.65225 7.99873 3.65225Z" fill="#CCCCCC"/>
</g>
<defs>
<clipPath id="clip0_2191_13890">
<rect width="16" height="11.2" fill="white" transform="translate(0 0.399902)"/>
</clipPath>
</defs>
</svg>
