<svg width="16" height="16" viewBox="0 0 16 16" fill="none" xmlns="http://www.w3.org/2000/svg">
<path d="M5.02307 8.542C4.71494 8.542 4.46484 8.29926 4.46484 8.0002C4.46484 6.10897 6.05016 4.57031 7.99873 4.57031C8.30686 4.57031 8.55696 4.81305 8.55696 5.11211C8.55696 5.41117 8.30686 5.65391 7.99873 5.65391C6.66526 5.65391 5.58072 6.70653 5.58072 8.00076C5.58072 8.29982 5.33062 8.54256 5.02249 8.54256L5.02307 8.542Z" fill="#777777"/>
<path d="M2.44631 11.4043C2.30994 11.4043 2.173 11.3559 2.06564 11.2584C1.38034 10.6372 0.800638 9.94787 0.341639 9.20839C-0.11388 8.47398 -0.11388 7.52555 0.341639 6.79114C2.04591 4.04385 4.909 2.40381 8.00014 2.40381C8.80963 2.40381 9.62608 2.52208 10.4263 2.75468C10.7216 2.84085 10.8888 3.14273 10.8006 3.42883C10.7118 3.71494 10.4013 3.87827 10.106 3.7921C9.41022 3.58934 8.7017 3.48684 8.00073 3.48684C5.30475 3.48684 2.79912 4.93089 1.29852 7.34983C1.06118 7.73224 1.06118 8.26672 1.29852 8.6497C1.70413 9.30301 2.21826 9.91464 2.82813 10.4671C3.05328 10.671 3.06546 11.014 2.8554 11.2325C2.74573 11.3469 2.5966 11.4043 2.44747 11.4043H2.44631Z" fill="#777777"/>
<path d="M8.00007 13.5956C6.48206 13.5956 4.9745 13.1895 3.64044 12.4202C3.37526 12.2675 3.28822 11.9353 3.44547 11.6779C3.60273 11.4205 3.94509 11.336 4.21028 11.4886C5.38882 12.1679 6.66427 12.512 8.00065 12.512C10.6966 12.512 13.2023 11.0679 14.7029 8.64898C14.9402 8.26657 14.9402 7.7321 14.7029 7.34912C13.9688 6.1664 12.962 5.18418 11.7904 4.50947C11.5253 4.35684 11.4382 4.02455 11.5955 3.76717C11.7527 3.50979 12.0951 3.42531 12.3603 3.57793C13.6897 4.34388 14.8299 5.45451 15.6586 6.78986C16.1141 7.52427 16.1141 8.4727 15.6586 9.20712C13.9543 11.9544 11.0912 13.5944 8.00007 13.5944V13.5956Z" fill="#777777"/>
<path d="M7.99825 11.4299C7.05414 11.4299 6.1669 11.0729 5.49958 10.4252C5.28139 10.214 5.28139 9.871 5.49958 9.65924C5.71718 9.44748 6.07057 9.44748 6.28875 9.65924C6.74543 10.1025 7.3524 10.3463 7.99825 10.3463C9.33173 10.3463 10.4163 9.29372 10.4163 7.99949C10.4163 7.37265 10.1644 6.78354 9.70833 6.3403C9.49015 6.1291 9.49015 5.78611 9.70833 5.57435C9.92593 5.36259 10.2793 5.36259 10.4975 5.57435C11.1648 6.22203 11.5327 7.08316 11.5327 7.99949C11.5327 9.89071 9.94741 11.4294 7.99883 11.4294L7.99825 11.4299Z" fill="#777777"/>
<path d="M8.00258 11.4298C7.05847 11.4298 6.17123 11.0727 5.50391 10.4251L6.29308 9.65911C6.74976 10.1023 7.35673 10.3462 8.00258 10.3462C9.33606 10.3462 10.4206 9.29359 10.4206 7.99936C10.4206 7.37252 10.1688 6.78341 9.71266 6.34017L10.5018 5.57422C11.1692 6.2219 11.5371 7.08303 11.5371 7.99936C11.5371 9.89058 9.95174 11.4292 8.00316 11.4292L8.00258 11.4298Z" fill="#777777"/>
<path d="M1.30432 15.04C1.16157 15.04 1.01882 14.987 0.909732 14.8811C0.691548 14.6699 0.691548 14.327 0.909732 14.1152L14.3008 1.11878C14.5184 0.90702 14.8718 0.90702 15.09 1.11878C15.3082 1.32998 15.3082 1.67297 15.09 1.88474L1.69891 14.8811C1.58982 14.987 1.44707 15.04 1.30432 15.04Z" fill="#777777"/>
</svg>
