<svg width="84" height="24" viewBox="0 0 84 24" fill="none" xmlns="http://www.w3.org/2000/svg">
<mask id="mask0_286_34344" style="mask-type:luminance" maskUnits="userSpaceOnUse" x="0" y="0" width="84" height="25">
<path d="M0 21.8886L1.015 22.468C2.7846 23.4778 4.7715 24.0006 6.81616 24.0006C7.16183 24.0006 7.50842 23.986 7.85683 23.9558C10.2618 23.7484 12.5366 22.8345 14.4337 21.311C17.277 19.029 22.0751 13.8409 22.2777 13.6206C22.3254 13.5694 27.0721 8.43521 29.6834 6.33966C30.9542 5.31976 32.4744 4.70745 34.0781 4.56945C35.2792 4.46527 36.462 4.63342 37.5522 5.05655V19.4622C36.462 19.8853 35.2783 20.0535 34.0781 19.9493C32.4744 19.8113 30.9542 19.199 29.6834 18.1791C28.3833 17.1354 26.5522 15.3369 25.0357 13.7888C24.3214 14.5391 23.1625 15.7929 22.2722 16.7242C23.8465 18.3272 25.7417 20.1778 27.1537 21.311C29.0508 22.8335 31.3256 23.7484 33.7306 23.9558C36.1383 24.1633 38.5039 23.6487 40.5724 22.468L41.5874 21.8886V2.63018L40.5724 2.05077C38.5039 0.870023 36.1383 0.355503 33.7306 0.562956C31.3256 0.770409 29.0508 1.6843 27.1537 3.20775C24.3104 5.48974 19.5123 10.6779 19.3097 10.8981C19.262 10.9493 14.5153 16.0836 11.904 18.1791C10.6332 19.199 9.11297 19.8113 7.50933 19.9493C6.30821 20.0526 5.12542 19.8853 4.03523 19.4622L4.03707 5.05655C5.12725 4.63342 6.31004 4.46618 7.51025 4.57036C9.11389 4.70836 10.6332 5.32067 11.904 6.34057C13.2041 7.38423 15.0352 9.18277 16.5517 10.7318C17.0422 10.2164 18.4176 8.73496 19.3152 7.79548C17.7409 6.19252 15.8466 4.34189 14.4337 3.20867C12.5366 1.68613 10.2628 0.772237 7.85775 0.56387C5.45 0.355503 3.08534 0.870023 1.01775 2.04986L0.00275056 2.62926L0 21.8886ZM84 0.890129H79.9657V23.678H84V0.890129ZM51.6787 23.678L60.7357 8.04223L69.7928 23.678H74.4515L60.7357 0L47.02 23.678H51.6787Z" fill="white"/>
</mask>
<g mask="url(#mask0_286_34344)">
<path d="M85.8737 -0.558594H-1.90625V27.1614H85.8737V-0.558594Z" fill="url(#paint0_linear_286_34344)"/>
<path d="M85.8737 -0.558594H-1.90625V26.7414H85.8737V-0.558594Z" fill="url(#paint1_linear_286_34344)"/>
<path d="M85.8737 -0.558594H-1.90625V27.5814H85.8737V-0.558594Z" fill="url(#paint2_linear_286_34344)"/>
</g>
<defs>
<linearGradient id="paint0_linear_286_34344" x1="78.396" y1="30.2269" x2="15.3275" y2="-14.7904" gradientUnits="userSpaceOnUse">
<stop stop-color="white"/>
<stop offset="1" stop-color="#7BCEEA"/>
</linearGradient>
<linearGradient id="paint1_linear_286_34344" x1="71.9137" y1="32.5659" x2="33.2114" y2="-7.30276" gradientUnits="userSpaceOnUse">
<stop stop-color="#3693FF"/>
<stop offset="1" stop-color="white" stop-opacity="0"/>
</linearGradient>
<linearGradient id="paint2_linear_286_34344" x1="34.772" y1="38.3526" x2="41.6573" y2="3.01236" gradientUnits="userSpaceOnUse">
<stop stop-color="#0023CC"/>
<stop offset="1" stop-color="white" stop-opacity="0"/>
</linearGradient>
</defs>
</svg>
