<svg width="32" height="32" viewBox="0 0 32 32" fill="none" xmlns="http://www.w3.org/2000/svg">
<path fill-rule="evenodd" clip-rule="evenodd" d="M23.9795 9.72771C23.6446 9.6256 23.2903 9.81434 23.1881 10.1493L22.3373 12.94L19.5201 12.0811C19.1851 11.979 18.8308 12.1677 18.7287 12.5027C18.6266 12.8376 18.8154 13.1919 19.1503 13.294L22.574 14.3378C22.9089 14.4399 23.2632 14.2512 23.3654 13.9162L24.401 10.519C24.5032 10.1841 24.3144 9.82982 23.9795 9.72771Z" fill="#0186C9"/>
<path fill-rule="evenodd" clip-rule="evenodd" d="M13.2226 10.1922C16.4874 8.69762 20.3693 10.119 21.8907 13.3688C22.0392 13.686 22.4166 13.8227 22.7338 13.6742C23.0509 13.5258 23.1876 13.1483 23.0391 12.8312C21.2218 8.94934 16.5907 7.25544 12.6943 9.03944L12.6939 9.03964C8.79298 10.8292 7.09945 15.4295 8.91858 19.3152C10.7357 23.1965 15.3655 24.8952 19.2639 23.1068L19.2642 23.1066C20.8798 22.3643 22.1918 21.0928 22.9761 19.5015C23.1309 19.1874 23.0018 18.8073 22.6877 18.6525C22.3736 18.4977 21.9935 18.6268 21.8387 18.9409C21.1841 20.2691 20.0879 21.3327 18.7348 21.9544C15.4695 23.4521 11.5887 22.028 10.067 18.7776C8.54727 15.5314 9.95984 11.689 13.2226 10.1922Z" fill="#0186C9"/>
</svg>
